<?xml version="1.0" encoding="UTF-8" standalone="no"?>
<svg
   xmlns:dc="http://purl.org/dc/elements/1.1/"
   xmlns:cc="http://creativecommons.org/ns#"
   xmlns:rdf="http://www.w3.org/1999/02/22-rdf-syntax-ns#"
   xmlns:svg="http://www.w3.org/2000/svg"
   xmlns="http://www.w3.org/2000/svg"
   viewBox="0 0 590.66669 590.66669"
   height="590.66669"
   width="590.66669"
   xml:space="preserve"
   id="svg2"
   version="1.1"><metadata
     id="metadata8"><rdf:RDF><cc:Work
         rdf:about=""><dc:format>image/svg+xml</dc:format><dc:type
           rdf:resource="http://purl.org/dc/dcmitype/StillImage" /></cc:Work></rdf:RDF></metadata><defs
     id="defs6"><clipPath
       id="clipPath18"
       clipPathUnits="userSpaceOnUse"><path
         id="path16"
         d="M 0,443 H 443 V 0 H 0 Z" /></clipPath><linearGradient
       id="linearGradient40"
       spreadMethod="pad"
       gradientTransform="matrix(0,-381.19284,-381.19284,0,224.18706,443.00031)"
       gradientUnits="userSpaceOnUse"
       y2="0"
       x2="1"
       y1="0"
       x1="0"><stop
         id="stop36"
         offset="0"
         style="stop-opacity:1;stop-color:#3b3b3b" /><stop
         id="stop38"
         offset="1"
         style="stop-opacity:1;stop-color:#333333" /></linearGradient><clipPath
       id="clipPath50"
       clipPathUnits="userSpaceOnUse"><path
         id="path48"
         d="M 0,443 H 443 V 0 H 0 Z" /></clipPath></defs><g
     transform="matrix(1.3333333,0,0,-1.3333333,0,590.66667)"
     id="g10"><g
       id="g12"><g
         clip-path="url(#clipPath18)"
         id="g14"><g
           transform="translate(221.5,79.7413)"
           id="g20"><path
             id="path22"
             style="fill:#595959;fill-opacity:1;fill-rule:nonzero;stroke:none"
             d="m 0,0 c -78.291,0 -141.759,63.468 -141.759,141.759 0,78.291 63.468,141.759 141.759,141.759 78.291,0 141.759,-63.468 141.759,-141.759 C 141.759,63.468 78.291,0 0,0 m 0,362.701 c -122.331,0 -221.5,-99.169 -221.5,-221.5 C -221.5,18.87 -122.331,-80.3 0,-80.3 c 122.332,0 221.501,99.17 221.501,221.501 0,122.331 -99.169,221.5 -221.501,221.5" /></g></g></g><g
       id="g24"><g
         id="g26"><g
           id="g32"><g
             id="g34"><path
               id="path42"
               style="fill:url(#linearGradient40);stroke:none"
               d="M 221.166,443 C 116.888,442.848 29.517,370.634 6.151,273.491 v 0 c -3.395,-14.113 4.628,-28.472 18.4,-33.058 v 0 l 2.677,-0.891 c 24.74,-8.237 51.806,4.651 60.403,29.267 v 0 c 19.425,55.626 72.538,95.444 134.89,95.004 v 0 c 44.307,-0.312 84.068,-21.249 109.935,-53.73 v 0 l -63.262,-29.5 c -7.937,7.044 -17.534,12.529 -28.526,15.725 v 0 c -35.594,10.348 -73.837,-7.659 -88.496,-41.705 v 0 c -17.156,-39.845 3.27,-85.399 43.885,-99.368 v 0 c 37.894,-13.033 79.738,6.904 93.521,44.533 v 0 c 2.632,7.186 4.076,14.515 4.439,21.774 v 0 l 65.984,30.769 c 1.784,-8.158 2.869,-16.575 3.169,-25.189 v 0 c 1.185,-34.015 -9.619,-65.469 -28.516,-90.466 v 0 c -17.813,-23.563 -10.451,-57.424 15.72,-71.12 v 0 l 1.332,-0.696 c 10.435,-5.462 23.302,-3.43 31.36,5.159 v 0 c 37.045,39.487 59.787,92.546 59.934,150.929 v 0 1.154 c -0.039,15.008 -1.571,30.364 -4.736,45.926 v 0 c -17.276,84.936 -83.6,151.939 -168.399,169.872 v 0 c -16.284,3.444 -32.357,5.097 -48.042,5.12 v 0 z" /></g></g></g></g><g
       id="g44"><g
         clip-path="url(#clipPath50)"
         id="g46"><g
           transform="translate(104.74,133.2811)"
           id="g52"><path
             id="path54"
             style="fill:#595959;fill-opacity:1;fill-rule:nonzero;stroke:none"
             d="m 0,0 -27.048,58.004 134.134,62.547 c 16.017,7.469 35.057,0.539 42.526,-15.478 v 0 c 7.469,-16.017 0.539,-35.057 -15.478,-42.525 z" /></g></g></g></g></svg>